# Blender 4.2.5 LTS
# www.blender.org
mtllib MannorBlocking_001.mtl
o Plane
v -18.061184 0.000000 22.407810
v -18.061184 3.902198 22.407810
v -18.061184 0.000000 9.736722
v -18.061184 3.902198 9.736722
v -18.061184 0.000000 -11.097966
v -18.061184 1.337461 -11.097966
v 0.196137 0.000000 -11.097966
v 0.196137 1.337461 -11.097966
v -26.507288 0.000000 22.407810
v -26.507288 3.902198 22.407810
v -26.388288 0.000000 7.062607
v -26.388288 3.902198 7.062607
v -34.741512 0.000000 6.943607
v -34.741512 3.902198 6.943607
v -36.746136 0.000000 6.802354
v -36.746136 3.902198 6.802354
v -46.070621 0.000000 6.802354
v -46.070621 3.902198 6.802354
v -22.784422 0.000000 -13.173212
v -22.784422 3.902198 -13.173212
v -22.784422 3.902198 -11.741342
v -22.784422 0.000000 -11.741342
v -22.784422 0.000000 1.647619
v -22.784422 3.902198 1.647619
v -22.665422 0.000000 -16.624001
v -22.665422 3.902198 -16.624001
v -45.929375 0.000000 1.647619
v -45.929375 3.902198 1.647619
v -23.286547 0.000000 6.943607
v -23.286547 3.902198 6.943607
v -21.281927 0.000000 6.943607
v -21.281927 3.902198 6.943607
v -18.418184 0.000000 6.943607
v -18.418184 3.902198 6.943607
v 0.196137 3.902198 -16.743000
v 0.196137 0.000000 -16.743000
v -46.070621 0.000000 22.407810
v -46.070621 3.902198 22.407810
v -26.436661 0.000000 22.407810
v -26.436661 3.902198 22.407810
v -43.727207 0.000000 -16.743000
v -45.929375 0.000000 -14.540831
v -44.425747 0.000000 -16.632360
v -45.030567 0.000000 -16.324188
v -45.510559 0.000000 -15.844201
v -45.818733 0.000000 -15.239378
v -45.929375 3.902198 -14.540831
v -43.727207 3.902198 -16.743000
v -45.818733 3.902198 -15.239378
v -45.510559 3.902198 -15.844201
v -45.030567 3.902198 -16.324188
v -44.425747 3.902198 -16.632360
v -18.061184 3.902198 6.557869
v -18.061184 0.000000 6.557876
v -18.061184 1.337461 6.518481
v -18.061184 0.000000 6.518479
v -18.418184 0.000000 22.050810
v -18.418184 3.902198 22.050810
v -18.418184 0.000000 9.736722
v -18.418184 3.902198 9.736722
v -18.418184 0.000000 -11.454967
v -18.418184 1.337461 -11.454967
v 0.196137 0.000000 -11.454967
v 0.196137 1.337461 -11.454967
v -26.150288 0.000000 22.050810
v -26.150288 3.902198 22.050810
v -26.150288 0.000000 6.586607
v -26.150288 3.902198 6.586607
v -34.741512 0.000000 6.586607
v -34.741512 3.902198 6.586607
v -36.746136 0.000000 7.159354
v -36.746136 3.902198 7.159354
v -45.713623 0.000000 7.159354
v -45.713623 3.902198 7.159354
v -22.427422 0.000000 -13.173212
v -22.427422 3.902198 -13.173212
v -22.427422 3.902198 -11.741342
v -22.427422 0.000000 -11.741342
v -22.427422 0.000000 2.004619
v -22.427422 3.902198 2.004619
v -22.427422 0.000000 -17.100000
v -22.427422 3.902198 -17.100000
v -46.286373 0.000000 2.004619
v -46.286373 3.902198 2.004619
v -23.286547 0.000000 6.586607
v -23.286547 3.902198 6.586607
v -21.281927 0.000000 6.586607
v -21.281927 3.902198 6.586607
v -18.418184 0.000000 6.586607
v -18.418184 3.902198 6.586607
v 0.196137 3.902198 -17.100000
v 0.196137 0.000000 -17.100000
v -45.713623 0.000000 22.050810
v -45.713623 3.902198 22.050810
v -26.436661 0.000000 22.050810
v -26.436661 3.902198 22.050810
v -43.755302 0.000000 -17.100000
v -46.286373 0.000000 -14.568928
v -44.537441 0.000000 -16.976120
v -45.243023 0.000000 -16.616608
v -45.802979 0.000000 -16.056656
v -46.162491 0.000000 -15.351072
v -46.286373 3.902198 -14.568928
v -43.755302 3.902198 -17.100000
v -46.162491 3.902198 -15.351072
v -45.802979 3.902198 -16.056656
v -45.243023 3.902198 -16.616608
v -44.537441 3.902198 -16.976120
v -18.418184 3.902198 6.557869
v -18.418184 0.000000 6.557869
v -18.418184 1.337461 6.518472
v -18.418184 0.000000 6.518473
v 18.453457 0.000000 22.407810
v 18.453457 3.902198 22.407810
v 18.453457 0.000000 9.736722
v 18.453457 3.902198 9.736722
v 18.453457 0.000000 -11.097966
v 18.453457 1.337461 -11.097966
v 26.899561 0.000000 22.407810
v 26.899561 3.902198 22.407810
v 26.780561 0.000000 7.062607
v 26.780561 3.902198 7.062607
v 35.133785 0.000000 6.943607
v 35.133785 3.902198 6.943607
v 37.138409 0.000000 6.802354
v 37.138409 3.902198 6.802354
v 46.462894 0.000000 6.802354
v 46.462894 3.902198 6.802354
v 23.176695 0.000000 -13.173212
v 23.176695 3.902198 -13.173212
v 23.176695 3.902198 -11.741342
v 23.176695 0.000000 -11.741342
v 23.176695 0.000000 1.647619
v 23.176695 3.902198 1.647619
v 23.057695 0.000000 -16.624001
v 23.057695 3.902198 -16.624001
v 46.321648 0.000000 1.647619
v 46.321648 3.902198 1.647619
v 23.678820 0.000000 6.943607
v 23.678820 3.902198 6.943607
v 21.674200 0.000000 6.943607
v 21.674200 3.902198 6.943607
v 18.810457 0.000000 6.943607
v 18.810457 3.902198 6.943607
v 46.462894 0.000000 22.407810
v 46.462894 3.902198 22.407810
v 26.828934 0.000000 22.407810
v 26.828934 3.902198 22.407810
v 44.119480 0.000000 -16.743000
v 46.321648 0.000000 -14.540831
v 44.818020 0.000000 -16.632360
v 45.422840 0.000000 -16.324188
v 45.902832 0.000000 -15.844201
v 46.211006 0.000000 -15.239378
v 46.321648 3.902198 -14.540831
v 44.119480 3.902198 -16.743000
v 46.211006 3.902198 -15.239378
v 45.902832 3.902198 -15.844201
v 45.422840 3.902198 -16.324188
v 44.818020 3.902198 -16.632360
v 18.453457 3.902198 6.557869
v 18.453457 0.000000 6.557876
v 18.453457 1.337461 6.518481
v 18.453457 0.000000 6.518479
v 18.810457 0.000000 22.050810
v 18.810457 3.902198 22.050810
v 18.810457 0.000000 9.736722
v 18.810457 3.902198 9.736722
v 18.810457 0.000000 -11.454967
v 18.810457 1.337461 -11.454967
v 26.542561 0.000000 22.050810
v 26.542561 3.902198 22.050810
v 26.542561 0.000000 6.586607
v 26.542561 3.902198 6.586607
v 35.133785 0.000000 6.586607
v 35.133785 3.902198 6.586607
v 37.138409 0.000000 7.159354
v 37.138409 3.902198 7.159354
v 46.105896 0.000000 7.159354
v 46.105896 3.902198 7.159354
v 22.819695 0.000000 -13.173212
v 22.819695 3.902198 -13.173212
v 22.819695 3.902198 -11.741342
v 22.819695 0.000000 -11.741342
v 22.819695 0.000000 2.004619
v 22.819695 3.902198 2.004619
v 22.819695 0.000000 -17.100000
v 22.819695 3.902198 -17.100000
v 46.678646 0.000000 2.004619
v 46.678646 3.902198 2.004619
v 23.678820 0.000000 6.586607
v 23.678820 3.902198 6.586607
v 21.674200 0.000000 6.586607
v 21.674200 3.902198 6.586607
v 18.810457 0.000000 6.586607
v 18.810457 3.902198 6.586607
v 46.105896 0.000000 22.050810
v 46.105896 3.902198 22.050810
v 26.828934 0.000000 22.050810
v 26.828934 3.902198 22.050810
v 44.147575 0.000000 -17.100000
v 46.678646 0.000000 -14.568928
v 44.929714 0.000000 -16.976120
v 45.635296 0.000000 -16.616608
v 46.195251 0.000000 -16.056656
v 46.554764 0.000000 -15.351072
v 46.678646 3.902198 -14.568928
v 44.147575 3.902198 -17.100000
v 46.554764 3.902198 -15.351072
v 46.195251 3.902198 -16.056656
v 45.635296 3.902198 -16.616608
v 44.929714 3.902198 -16.976120
v 18.810457 3.902198 6.557869
v 18.810457 0.000000 6.557869
v 18.810457 1.337461 6.518472
v 18.810457 0.000000 6.518473
vn 1.0000 -0.0000 -0.0000
vn -0.0000 -0.0000 1.0000
vn -1.0000 -0.0000 -0.0078
vn -0.0142 -0.0000 0.9999
vn -0.0000 -0.0000 -1.0000
vn -1.0000 -0.0000 -0.0000
vn -0.9994 -0.0000 -0.0345
vn -0.0056 -0.0000 1.0000
vn 0.0383 -0.0000 0.9993
vn 0.0052 -0.0000 1.0000
vn 0.9877 -0.0000 0.1564
vn 0.8910 -0.0000 0.4540
vn 0.7071 -0.0000 0.7071
vn 0.4540 -0.0000 0.8910
vn 0.1564 -0.0000 0.9877
vn -0.9877 -0.0000 -0.1564
vn -0.8910 -0.0000 -0.4540
vn -0.7071 -0.0000 -0.7071
vn -0.4540 -0.0000 -0.8910
vn -0.1564 -0.0000 -0.9877
vn -0.0000 1.0000 -0.0000
vn -0.0000 -1.0000 -0.0000
vn -0.0000 0.0154 -0.9999
vn 1.0000 -0.0000 -0.0078
vn 0.0142 -0.0000 0.9999
vn 0.9994 -0.0000 -0.0345
vn 0.0056 -0.0000 1.0000
vn -0.0383 -0.0000 0.9993
vn -0.0052 -0.0000 1.0000
vn -0.9877 -0.0000 0.1564
vn -0.8910 -0.0000 0.4540
vn -0.7071 -0.0000 0.7071
vn -0.4540 -0.0000 0.8910
vn -0.1564 -0.0000 0.9877
vn 0.9877 -0.0000 -0.1564
vn 0.8910 -0.0000 -0.4540
vn 0.7071 -0.0000 -0.7071
vn 0.4540 -0.0000 -0.8910
vn 0.1564 -0.0000 -0.9877
vt 0.000000 0.000000
s 0
f 1/1/1 3/1/1 4/1/1 2/1/1
f 56/1/1 5/1/1 6/1/1 55/1/1
f 5/1/2 7/1/2 8/1/2 6/1/2
f 10/1/3 12/1/3 11/1/3 9/1/3
f 12/1/4 14/1/4 13/1/4 11/1/4
f 16/1/5 15/1/5 17/1/5 18/1/5
f 24/1/6 21/1/6 22/1/6 23/1/6
f 28/1/5 24/1/5 23/1/5 27/1/5
f 20/1/7 26/1/7 25/1/7 19/1/7
f 26/1/8 48/1/8 41/1/8 25/1/8
f 12/1/9 11/1/9 29/1/9 30/1/9
f 10/1/2 9/1/2 1/1/2 2/1/2
f 32/1/2 31/1/2 33/1/2 34/1/2
f 26/1/10 25/1/10 36/1/10 35/1/10
f 17/1/6 37/1/6 38/1/6 18/1/6
f 38/1/2 37/1/2 39/1/2 40/1/2
f 47/1/11 42/1/11 46/1/11 49/1/11
f 49/1/12 46/1/12 45/1/12 50/1/12
f 50/1/13 45/1/13 44/1/13 51/1/13
f 51/1/14 44/1/14 43/1/14 52/1/14
f 52/1/15 43/1/15 41/1/15 48/1/15
f 47/1/1 28/1/1 27/1/1 42/1/1
f 3/1/1 54/1/1 53/1/1 4/1/1
f 54/1/1 56/1/1 55/1/1 53/1/1
f 57/1/6 58/1/6 60/1/6 59/1/6
f 112/1/6 111/1/6 62/1/6 61/1/6
f 61/1/5 62/1/5 64/1/5 63/1/5
f 66/1/1 65/1/1 67/1/1 68/1/1
f 68/1/5 67/1/5 69/1/5 70/1/5
f 72/1/2 74/1/2 73/1/2 71/1/2
f 80/1/1 79/1/1 78/1/1 77/1/1
f 84/1/2 83/1/2 79/1/2 80/1/2
f 76/1/1 75/1/1 81/1/1 82/1/1
f 82/1/5 81/1/5 97/1/5 104/1/5
f 68/1/5 86/1/5 85/1/5 67/1/5
f 66/1/5 58/1/5 57/1/5 65/1/5
f 88/1/5 90/1/5 89/1/5 87/1/5
f 82/1/5 91/1/5 92/1/5 81/1/5
f 73/1/1 74/1/1 94/1/1 93/1/1
f 94/1/5 96/1/5 95/1/5 93/1/5
f 103/1/16 105/1/16 102/1/16 98/1/16
f 105/1/17 106/1/17 101/1/17 102/1/17
f 106/1/18 107/1/18 100/1/18 101/1/18
f 107/1/19 108/1/19 99/1/19 100/1/19
f 108/1/20 104/1/20 97/1/20 99/1/20
f 103/1/6 98/1/6 83/1/6 84/1/6
f 59/1/6 60/1/6 109/1/6 110/1/6
f 110/1/6 109/1/6 111/1/6 112/1/6
f 2/1/21 4/1/21 60/1/21 58/1/21
f 3/1/22 1/1/22 57/1/22 59/1/22
f 55/1/21 6/1/21 62/1/21 111/1/21
f 54/1/22 3/1/22 59/1/22 110/1/22
f 8/1/1 7/1/1 63/1/1 64/1/1
f 6/1/21 8/1/21 64/1/21 62/1/21
f 7/1/22 5/1/22 61/1/22 63/1/22
f 9/1/22 11/1/22 67/1/22 65/1/22
f 12/1/21 10/1/21 66/1/21 68/1/21
f 13/1/6 14/1/6 70/1/6 69/1/6
f 11/1/22 13/1/22 69/1/22 67/1/22
f 14/1/21 12/1/21 68/1/21 70/1/21
f 15/1/1 16/1/1 72/1/1 71/1/1
f 17/1/22 15/1/22 71/1/22 73/1/22
f 16/1/21 18/1/21 74/1/21 72/1/21
f 20/1/2 19/1/2 75/1/2 76/1/2
f 21/1/21 24/1/21 80/1/21 77/1/21
f 23/1/22 22/1/22 78/1/22 79/1/22
f 22/1/5 21/1/5 77/1/5 78/1/5
f 19/1/22 25/1/22 81/1/22 75/1/22
f 26/1/21 20/1/21 76/1/21 82/1/21
f 27/1/22 23/1/22 79/1/22 83/1/22
f 24/1/21 28/1/21 84/1/21 80/1/21
f 30/1/1 29/1/1 85/1/1 86/1/1
f 29/1/22 11/1/22 67/1/22 85/1/22
f 12/1/21 30/1/21 86/1/21 68/1/21
f 31/1/6 32/1/6 88/1/6 87/1/6
f 26/1/21 35/1/21 91/1/21 82/1/21
f 36/1/22 25/1/22 81/1/22 92/1/22
f 34/1/1 33/1/1 89/1/1 90/1/1
f 33/1/22 31/1/22 87/1/22 89/1/22
f 32/1/21 34/1/21 90/1/21 88/1/21
f 35/1/1 36/1/1 92/1/1 91/1/1
f 1/1/22 9/1/22 65/1/22 57/1/22
f 10/1/21 2/1/21 58/1/21 66/1/21
f 18/1/21 38/1/21 94/1/21 74/1/21
f 37/1/22 17/1/22 73/1/22 93/1/22
f 40/1/1 39/1/1 95/1/1 96/1/1
f 39/1/22 37/1/22 93/1/22 95/1/22
f 38/1/21 40/1/21 96/1/21 94/1/21
f 47/1/21 49/1/21 105/1/21 103/1/21
f 46/1/22 42/1/22 98/1/22 102/1/22
f 49/1/21 50/1/21 106/1/21 105/1/21
f 45/1/22 46/1/22 102/1/22 101/1/22
f 50/1/21 51/1/21 107/1/21 106/1/21
f 44/1/22 45/1/22 101/1/22 100/1/22
f 51/1/21 52/1/21 108/1/21 107/1/21
f 43/1/22 44/1/22 100/1/22 99/1/22
f 52/1/21 48/1/21 104/1/21 108/1/21
f 41/1/22 43/1/22 99/1/22 97/1/22
f 28/1/21 47/1/21 103/1/21 84/1/21
f 42/1/22 27/1/22 83/1/22 98/1/22
f 48/1/21 26/1/21 82/1/21 104/1/21
f 25/1/22 41/1/22 97/1/22 81/1/22
f 4/1/21 53/1/21 109/1/21 60/1/21
f 56/1/22 54/1/22 110/1/22 112/1/22
f 53/1/23 55/1/23 111/1/23 109/1/23
f 5/1/22 56/1/22 112/1/22 61/1/22
f 113/1/6 114/1/6 116/1/6 115/1/6
f 164/1/6 163/1/6 118/1/6 117/1/6
f 117/1/2 118/1/2 8/1/2 7/1/2
f 120/1/24 119/1/24 121/1/24 122/1/24
f 122/1/25 121/1/25 123/1/25 124/1/25
f 126/1/5 128/1/5 127/1/5 125/1/5
f 134/1/1 133/1/1 132/1/1 131/1/1
f 138/1/5 137/1/5 133/1/5 134/1/5
f 130/1/26 129/1/26 135/1/26 136/1/26
f 136/1/27 135/1/27 149/1/27 156/1/27
f 122/1/28 140/1/28 139/1/28 121/1/28
f 120/1/2 114/1/2 113/1/2 119/1/2
f 142/1/2 144/1/2 143/1/2 141/1/2
f 136/1/29 35/1/29 36/1/29 135/1/29
f 127/1/1 128/1/1 146/1/1 145/1/1
f 146/1/2 148/1/2 147/1/2 145/1/2
f 155/1/30 157/1/30 154/1/30 150/1/30
f 157/1/31 158/1/31 153/1/31 154/1/31
f 158/1/32 159/1/32 152/1/32 153/1/32
f 159/1/33 160/1/33 151/1/33 152/1/33
f 160/1/34 156/1/34 149/1/34 151/1/34
f 155/1/6 150/1/6 137/1/6 138/1/6
f 115/1/6 116/1/6 161/1/6 162/1/6
f 162/1/6 161/1/6 163/1/6 164/1/6
f 165/1/1 167/1/1 168/1/1 166/1/1
f 216/1/1 169/1/1 170/1/1 215/1/1
f 169/1/5 63/1/5 64/1/5 170/1/5
f 172/1/6 174/1/6 173/1/6 171/1/6
f 174/1/5 176/1/5 175/1/5 173/1/5
f 178/1/2 177/1/2 179/1/2 180/1/2
f 186/1/6 183/1/6 184/1/6 185/1/6
f 190/1/2 186/1/2 185/1/2 189/1/2
f 182/1/6 188/1/6 187/1/6 181/1/6
f 188/1/5 208/1/5 201/1/5 187/1/5
f 174/1/5 173/1/5 191/1/5 192/1/5
f 172/1/5 171/1/5 165/1/5 166/1/5
f 194/1/5 193/1/5 195/1/5 196/1/5
f 188/1/5 187/1/5 92/1/5 91/1/5
f 179/1/6 197/1/6 198/1/6 180/1/6
f 198/1/5 197/1/5 199/1/5 200/1/5
f 207/1/35 202/1/35 206/1/35 209/1/35
f 209/1/36 206/1/36 205/1/36 210/1/36
f 210/1/37 205/1/37 204/1/37 211/1/37
f 211/1/38 204/1/38 203/1/38 212/1/38
f 212/1/39 203/1/39 201/1/39 208/1/39
f 207/1/1 190/1/1 189/1/1 202/1/1
f 167/1/1 214/1/1 213/1/1 168/1/1
f 214/1/1 216/1/1 215/1/1 213/1/1
f 114/1/21 166/1/21 168/1/21 116/1/21
f 115/1/22 167/1/22 165/1/22 113/1/22
f 163/1/21 215/1/21 170/1/21 118/1/21
f 162/1/22 214/1/22 167/1/22 115/1/22
f 118/1/21 170/1/21 64/1/21 8/1/21
f 7/1/22 63/1/22 169/1/22 117/1/22
f 119/1/22 171/1/22 173/1/22 121/1/22
f 122/1/21 174/1/21 172/1/21 120/1/21
f 123/1/1 175/1/1 176/1/1 124/1/1
f 121/1/22 173/1/22 175/1/22 123/1/22
f 124/1/21 176/1/21 174/1/21 122/1/21
f 125/1/6 177/1/6 178/1/6 126/1/6
f 127/1/22 179/1/22 177/1/22 125/1/22
f 126/1/21 178/1/21 180/1/21 128/1/21
f 130/1/2 182/1/2 181/1/2 129/1/2
f 131/1/21 183/1/21 186/1/21 134/1/21
f 133/1/22 185/1/22 184/1/22 132/1/22
f 132/1/5 184/1/5 183/1/5 131/1/5
f 129/1/22 181/1/22 187/1/22 135/1/22
f 136/1/21 188/1/21 182/1/21 130/1/21
f 137/1/22 189/1/22 185/1/22 133/1/22
f 134/1/21 186/1/21 190/1/21 138/1/21
f 140/1/6 192/1/6 191/1/6 139/1/6
f 139/1/22 191/1/22 173/1/22 121/1/22
f 122/1/21 174/1/21 192/1/21 140/1/21
f 141/1/1 193/1/1 194/1/1 142/1/1
f 136/1/21 188/1/21 91/1/21 35/1/21
f 36/1/22 92/1/22 187/1/22 135/1/22
f 144/1/6 196/1/6 195/1/6 143/1/6
f 143/1/22 195/1/22 193/1/22 141/1/22
f 142/1/21 194/1/21 196/1/21 144/1/21
f 113/1/22 165/1/22 171/1/22 119/1/22
f 120/1/21 172/1/21 166/1/21 114/1/21
f 128/1/21 180/1/21 198/1/21 146/1/21
f 145/1/22 197/1/22 179/1/22 127/1/22
f 148/1/6 200/1/6 199/1/6 147/1/6
f 147/1/22 199/1/22 197/1/22 145/1/22
f 146/1/21 198/1/21 200/1/21 148/1/21
f 155/1/21 207/1/21 209/1/21 157/1/21
f 154/1/22 206/1/22 202/1/22 150/1/22
f 157/1/21 209/1/21 210/1/21 158/1/21
f 153/1/22 205/1/22 206/1/22 154/1/22
f 158/1/21 210/1/21 211/1/21 159/1/21
f 152/1/22 204/1/22 205/1/22 153/1/22
f 159/1/21 211/1/21 212/1/21 160/1/21
f 151/1/22 203/1/22 204/1/22 152/1/22
f 160/1/21 212/1/21 208/1/21 156/1/21
f 149/1/22 201/1/22 203/1/22 151/1/22
f 138/1/21 190/1/21 207/1/21 155/1/21
f 150/1/22 202/1/22 189/1/22 137/1/22
f 156/1/21 208/1/21 188/1/21 136/1/21
f 135/1/22 187/1/22 201/1/22 149/1/22
f 116/1/21 168/1/21 213/1/21 161/1/21
f 164/1/22 216/1/22 214/1/22 162/1/22
f 161/1/23 213/1/23 215/1/23 163/1/23
f 117/1/22 169/1/22 216/1/22 164/1/22
o Plane.001
v -0.253545 0.000000 0.253545
v 0.253545 0.000000 0.253545
v -0.253545 0.000000 -0.253545
v 0.253545 0.000000 -0.253545
v -0.253545 1.800000 0.253545
v 0.253545 1.800000 0.253545
v -0.253545 1.800000 -0.253545
v 0.253545 1.800000 -0.253545
vn -0.0000 -1.0000 -0.0000
vn -0.0000 1.0000 -0.0000
vn -1.0000 -0.0000 -0.0000
vn -0.0000 -0.0000 1.0000
vn 1.0000 -0.0000 -0.0000
vn -0.0000 -0.0000 -1.0000
vt 0.000000 0.000000
vt 0.000000 1.000000
vt 1.000000 1.000000
vt 1.000000 0.000000
s 0
f 217/2/40 219/3/40 220/4/40 218/5/40
f 221/2/41 222/5/41 224/4/41 223/3/41
f 219/3/42 217/2/42 221/2/42 223/3/42
f 217/2/43 218/5/43 222/5/43 221/2/43
f 218/5/44 220/4/44 224/4/44 222/5/44
f 220/4/45 219/3/45 223/3/45 224/4/45
o Cube
v -3.000000 0.000000 -2.800000
v -3.000000 0.000000 -11.100000
v -3.000000 1.303262 -11.100000
v 3.000000 0.000000 -2.800000
v 3.000000 0.000000 -11.100000
v 3.000000 1.303262 -11.100000
vn -1.0000 -0.0000 -0.0000
vn -0.0000 -0.0000 -1.0000
vn 1.0000 -0.0000 -0.0000
vn -0.0000 -1.0000 -0.0000
vn -0.0000 0.9879 0.1551
vt 0.625000 0.000000
vt 0.625000 0.250000
vt 0.375000 0.250000
vt 0.625000 0.500000
vt 0.375000 0.500000
vt 0.375000 0.750000
vt 0.125000 0.500000
vt 0.125000 0.750000
vt 0.875000 0.500000
vt 0.875000 0.750000
vt 0.625000 0.750000
s 0
f 225/6/46 227/7/46 226/8/46
f 226/8/47 227/7/47 230/9/47 229/10/47
f 229/10/48 230/9/48 228/11/48
f 226/12/49 229/10/49 228/11/49 225/13/49
f 230/9/50 227/14/50 225/15/50 228/16/50
